<?xml version="1.0" encoding="utf-8" standalone="no"?>
<!DOCTYPE svg PUBLIC "-//W3C//DTD SVG 1.1//EN"
  "http://www.w3.org/Graphics/SVG/1.1/DTD/svg11.dtd">
<svg xmlns:xlink="http://www.w3.org/1999/xlink" width="432pt" height="288pt" viewBox="0 0 432 288" xmlns="http://www.w3.org/2000/svg" version="1.1">
 <metadata>
  <rdf:RDF xmlns:dc="http://purl.org/dc/elements/1.1/" xmlns:cc="http://creativecommons.org/ns#" xmlns:rdf="http://www.w3.org/1999/02/22-rdf-syntax-ns#">
   <cc:Work>
    <dc:type rdf:resource="http://purl.org/dc/dcmitype/StillImage"/>
    <dc:date>2026-04-01T13:44:23.737545</dc:date>
    <dc:format>image/svg+xml</dc:format>
    <dc:creator>
     <cc:Agent>
      <dc:title>Matplotlib v3.10.8, https://matplotlib.org/</dc:title>
     </cc:Agent>
    </dc:creator>
   </cc:Work>
  </rdf:RDF>
 </metadata>
 <defs>
  <style type="text/css">*{stroke-linejoin: round; stroke-linecap: butt}</style>
 </defs>
 <g id="figure_1">
  <g id="patch_1">
   <path d="M 0 288 
L 432 288 
L 432 0 
L 0 0 
z
" style="fill: #ffffff"/>
  </g>
  <g id="axes_1">
   <g id="patch_2">
    <path d="M 44.783053 254.64351 
L 428.99976 254.64351 
L 428.99976 3.00024 
L 44.783053 3.00024 
z
" style="fill: #ffffff"/>
   </g>
   <g id="line2d_1">
    <path d="M 62.247448 14.43857 
L 62.899887 96.115127 
L 63.27271 104.087846 
L 63.319312 94.961874 
L 63.925149 116.171548 
L 64.251368 88.476017 
L 64.297971 69.930093 
L 64.95041 131.500408 
L 64.997013 117.877471 
L 65.183424 121.850089 
L 65.369835 115.800295 
L 65.649452 118.449306 
L 65.882466 122.517434 
L 66.208686 121.350074 
L 66.674713 109.282475 
L 66.861125 112.199147 
L 67.047536 130.247387 
L 67.699975 105.575226 
L 67.886386 78.284383 
L 68.026194 112.572296 
L 68.1194 121.793225 
L 68.771839 140.384246 
L 68.911647 156.024581 
L 69.377675 124.858883 
L 69.517484 78.785421 
L 69.610689 139.990894 
L 69.703895 96.268034 
L 70.076717 112.432677 
L 70.309731 104.946962 
L 70.96217 127.550324 
L 71.521404 103.258021 
L 71.614609 124.826806 
L 71.987432 113.669062 
L 72.733076 160.094161 
L 73.432118 118.798371 
L 73.478721 123.545797 
L 74.084557 134.705754 
L 74.13116 120.635843 
L 74.690393 101.66369 
L 74.830202 179.376227 
L 75.203024 102.419996 
L 75.342832 115.739312 
L 75.575846 86.539631 
L 75.80886 135.466743 
L 76.414697 138.755211 
L 76.787519 91.896937 
L 76.927327 115.117707 
L 77.067136 126.297629 
L 78.139 118.891055 
L 78.185603 95.851319 
L 78.744836 123.8452 
L 79.024453 85.941187 
L 79.071056 87.389975 
L 79.117659 201.229063 
L 79.676892 120.25319 
L 80.049714 119.996415 
L 80.236125 119.634251 
L 80.329331 102.558144 
L 80.795359 162.624032 
L 80.888565 122.168528 
L 81.401195 115.595741 
L 81.727415 120.464709 
L 82.379854 174.892747 
L 82.426457 133.515494 
L 82.519662 135.687508 
L 82.845882 124.484854 
L 83.544924 109.144959 
L 83.731335 128.409352 
L 83.964349 122.090998 
L 84.197363 108.583487 
L 84.430377 126.200341 
L 84.476979 124.479381 
L 84.756596 113.118101 
L 85.82846 115.664331 
L 85.921666 127.926081 
L 85.968269 93.657887 
L 86.014872 126.437841 
L 86.15468 119.859315 
L 86.247885 124.3587 
L 86.900325 169.147137 
L 87.040133 88.861307 
L 87.226544 107.941284 
L 87.412955 151.256191 
L 87.506161 112.964472 
L 87.785778 80.48355 
L 88.251805 170.109321 
L 88.531422 100.141526 
L 89.277067 126.288353 
L 89.556684 109.525774 
L 89.8363 116.523546 
L 90.675151 115.554546 
L 91.094576 108.817737 
L 91.374192 117.331963 
L 91.747015 125.827221 
L 92.026632 126.073761 
L 92.073234 131.043613 
L 92.725673 133.463877 
L 93.145098 110.167721 
L 93.517921 114.052939 
L 93.564524 123.918512 
L 94.310168 136.391653 
L 94.403374 89.304266 
L 95.661649 94.373758 
L 95.754855 140.097983 
L 95.84806 137.47934 
L 95.987869 163.290152 
L 96.127677 79.306286 
L 96.733513 158.472071 
L 97.665569 126.804342 
L 98.1782 140.947645 
L 98.224803 116.449681 
L 98.504419 106.436378 
L 98.784036 137.349016 
L 99.529681 105.452055 
L 99.576284 115.517035 
L 99.669489 107.099189 
L 100.228723 127.588536 
L 100.834559 84.609257 
L 101.207381 134.917777 
L 101.34719 129.053501 
L 101.999629 110.948991 
L 102.232643 135.177703 
L 102.419054 125.88854 
L 102.652068 148.002043 
L 103.86374 120.955072 
L 104.050152 153.149371 
L 105.401632 142.987389 
L 105.494838 124.208845 
L 105.960866 133.854373 
L 106.287085 170.59765 
L 106.939525 172.538505 
L 108.757033 123.342754 
L 108.850239 125.056423 
L 109.36287 139.537587 
L 109.689089 136.823325 
L 109.8755 208.312712 
L 109.968706 137.41728 
L 110.388131 134.218523 
L 111.273584 132.965798 
L 111.926023 110.745306 
L 111.972626 123.896096 
L 112.065831 183.374214 
L 112.252243 102.191218 
L 112.671668 168.981269 
L 113.230901 87.842196 
L 113.417312 183.283268 
L 113.510518 135.085483 
L 113.650326 153.562135 
L 113.836738 108.46325 
L 114.302765 171.935373 
L 114.489177 126.00445 
L 114.815396 126.444213 
L 114.908602 107.560024 
L 115.141616 133.207833 
L 115.467835 145.508843 
L 115.700849 114.784913 
L 115.747452 175.275637 
L 116.306685 155.205949 
L 116.772713 122.891008 
L 116.865919 168.967458 
L 116.912522 156.145648 
L 117.238741 155.681296 
L 117.658166 117.540578 
L 117.704769 124.301273 
L 118.636825 142.220602 
L 118.823236 163.183489 
L 119.149456 114.797104 
L 120.034909 136.279813 
L 120.128114 128.05603 
L 120.361128 161.794019 
L 120.407731 134.247122 
L 120.640745 169.338009 
L 120.827156 121.133724 
L 121.106773 130.500368 
L 121.293184 130.037794 
L 121.526198 111.28626 
L 121.805815 182.242023 
L 122.178637 144.317664 
L 122.551459 119.985568 
L 122.924282 152.451904 
L 123.343707 170.341527 
L 123.669926 163.506502 
L 123.809735 144.191499 
L 123.856338 175.526425 
L 124.275763 167.48319 
L 124.741791 146.034978 
L 125.440832 150.130787 
L 125.627244 141.31865 
L 126.139874 181.646517 
L 126.186477 132.089798 
L 126.372888 152.80005 
L 128.097191 166.502779 
L 129.122453 142.623506 
L 129.961303 156.029906 
L 130.007906 164.07079 
L 130.147714 146.702363 
L 130.753551 134.58039 
L 130.846756 135.66368 
L 131.359387 185.988076 
L 131.499195 140.912989 
L 131.685606 178.71307 
L 132.384648 127.629988 
L 132.431251 166.804681 
L 132.571059 164.549703 
L 132.710868 191.457499 
L 133.270101 155.868424 
L 133.549718 149.825398 
L 133.736129 173.061064 
L 134.202157 154.517383 
L 134.341965 211.336275 
L 134.994404 176.00034 
L 135.134213 153.281769 
L 135.367227 154.575709 
L 135.507035 175.391221 
L 135.92646 185.880059 
L 136.439091 112.64874 
L 136.672105 135.037609 
L 136.765311 165.183342 
L 137.883778 196.432103 
L 138.2566 165.736269 
L 138.349805 144.653164 
L 138.815833 125.34238 
L 139.142053 145.503745 
L 139.514875 160.156498 
L 139.887698 160.65838 
L 140.213917 133.081708 
L 140.307123 145.361468 
L 140.586739 143.893203 
L 141.006164 173.664947 
L 141.472192 156.477246 
L 141.612001 173.131748 
L 141.751809 141.138161 
L 141.798412 165.285984 
L 142.357645 134.157688 
L 142.683865 133.326509 
L 143.382907 179.049173 
L 143.802332 139.533379 
L 144.314963 158.10071 
L 144.780991 136.988611 
L 144.874196 137.654158 
L 145.200416 179.556993 
L 145.43343 151.992719 
L 145.573238 160.729894 
L 145.94606 173.003213 
L 146.831513 187.345864 
L 148.136391 149.223965 
L 148.322803 137.959666 
L 148.742228 143.912655 
L 148.975242 160.582292 
L 149.068447 191.988079 
L 150.047106 146.027104 
L 150.559737 151.839061 
L 150.699545 143.375396 
L 150.979162 183.705694 
L 151.025764 125.110935 
L 151.724806 148.897563 
L 151.771409 160.292571 
L 152.28404 90.01747 
L 152.470451 157.359232 
L 152.703465 138.987071 
L 152.796671 168.821941 
L 153.216096 134.302336 
L 153.542315 178.284125 
L 153.682124 134.736103 
L 154.194754 183.551344 
L 154.28796 160.849726 
L 154.660782 157.605802 
L 154.707385 199.496525 
L 154.847193 157.830816 
L 156.478291 149.737652 
L 158.528814 157.734753 
L 158.948239 123.102191 
L 159.414267 165.982127 
L 159.926897 165.686064 
L 160.066706 186.424944 
L 160.346323 143.870116 
L 160.625939 195.935545 
L 160.812351 184.7991 
L 160.858953 168.867098 
L 161.185173 158.508672 
L 161.744406 162.64211 
L 162.676462 156.724606 
L 163.14249 146.816119 
L 163.98134 145.68867 
L 164.30756 138.631822 
L 165.006602 165.255577 
L 165.286218 192.1284 
L 165.752246 146.636391 
L 166.264877 149.033113 
L 166.404685 161.424545 
L 166.637699 164.1516 
L 167.243536 151.614334 
L 168.362003 169.99105 
L 169.48047 143.362455 
L 169.9931 147.825821 
L 170.132909 175.065293 
L 170.365923 176.506914 
L 170.738745 191.355172 
L 171.204773 187.148956 
L 171.670801 158.200122 
L 171.99702 152.604851 
L 173.395104 125.299298 
L 173.581515 198.845638 
L 173.628118 146.166783 
L 173.814529 200.720374 
L 175.352421 135.949964 
L 175.585435 182.608336 
L 175.818449 135.966155 
L 176.424285 179.390611 
L 176.797108 150.302395 
L 176.936916 157.582814 
L 177.868972 150.591721 
L 178.241794 163.618065 
L 178.474808 160.822855 
L 178.568014 207.932173 
L 178.801028 111.418529 
L 178.84763 124.813983 
L 179.546672 170.741112 
L 179.966097 188.784778 
L 180.33892 172.931313 
L 181.597195 186.445177 
L 181.643798 157.566424 
L 182.156429 177.087997 
L 182.203031 134.262405 
L 182.669059 144.916835 
L 182.85547 198.465475 
L 183.50791 173.934189 
L 184.113746 165.521776 
L 184.486568 203.856458 
L 184.533171 201.775983 
L 184.85939 154.270122 
L 184.999199 162.853777 
L 185.045802 184.416032 
L 185.092404 137.626734 
L 185.232213 193.916853 
L 186.117666 152.969069 
L 186.490488 159.348337 
L 186.537091 148.168227 
L 186.676899 147.184823 
L 187.003119 175.064938 
L 187.142927 152.470329 
L 187.236133 163.275887 
L 187.562352 142.534576 
L 187.981777 185.157194 
L 188.261394 182.548311 
L 188.494408 160.450664 
L 188.680819 210.233385 
L 189.240053 187.792868 
L 189.286656 207.113284 
L 189.473067 137.125454 
L 189.706081 180.509505 
L 189.752684 169.250205 
L 189.799286 167.52075 
L 189.939095 176.036714 
L 190.35852 159.027586 
L 190.451725 193.469572 
L 190.684739 137.195101 
L 190.917753 191.320023 
L 191.290576 131.211398 
L 191.52359 170.938228 
L 191.849809 175.3162 
L 192.409043 186.634181 
L 193.108084 143.941146 
L 193.667318 167.27011 
L 194.133346 140.621115 
L 194.319757 168.281135 
L 194.925593 135.242391 
L 195.391621 120.533931 
L 195.438224 172.061696 
L 196.323677 155.537922 
L 196.37028 169.117975 
L 196.789705 144.198138 
L 196.88291 144.338943 
L 198.04798 163.21359 
L 198.187789 179.695437 
L 198.327597 163.940012 
L 198.793625 184.891765 
L 199.632475 186.183561 
L 199.772283 145.720984 
L 200.098503 196.662579 
L 200.238311 178.521299 
L 200.331517 144.197091 
L 200.611134 149.627808 
L 201.21697 141.789295 
L 201.682998 159.613272 
L 201.822806 176.224771 
L 201.962615 157.399371 
L 202.335437 130.864201 
L 202.754862 133.864065 
L 203.453904 146.454381 
L 204.05974 149.028766 
L 205.737441 151.579353 
L 205.784043 161.411949 
L 206.343277 133.092733 
L 206.716099 153.785597 
L 206.762702 179.730705 
L 207.042319 153.683982 
L 207.22873 206.375403 
L 207.415141 182.303944 
L 207.461744 157.718126 
L 207.508347 190.004062 
L 207.741361 144.185414 
L 207.834566 147.175349 
L 208.626814 147.70101 
L 209.931692 184.346148 
L 210.164706 179.031391 
L 210.584131 190.762887 
L 210.723939 144.426619 
L 210.817145 178.145285 
L 211.143364 160.795569 
L 211.376378 173.758866 
L 211.935612 180.641607 
L 211.982215 145.980999 
L 212.122023 169.317254 
L 212.215229 151.839101 
L 212.541448 161.963078 
L 213.100682 163.109653 
L 213.193887 170.637956 
L 214.219149 204.4049 
L 214.358957 151.613682 
L 215.757041 181.649916 
L 216.129863 137.359537 
L 217.714358 158.601624 
L 217.947372 190.642857 
L 218.460003 185.965275 
L 218.879428 155.425351 
L 219.205647 169.257762 
L 219.298853 133.90037 
L 219.438661 182.780586 
L 219.531867 154.406126 
L 219.764881 207.805465 
L 219.811483 171.250117 
L 220.184306 150.213988 
L 220.696936 182.164157 
L 220.883348 178.882693 
L 221.349376 133.128238 
L 221.722198 168.454018 
L 222.09502 179.801557 
L 222.328034 158.718176 
L 223.027076 170.111179 
L 223.353296 205.651293 
L 223.679515 167.229922 
L 224.331954 183.542651 
L 224.42516 186.522667 
L 224.471763 129.33848 
L 224.751379 203.885582 
L 224.844585 175.060552 
L 225.170804 231.497452 
L 225.310613 178.600391 
L 225.823243 205.05393 
L 226.382477 193.986954 
L 226.801902 179.732187 
L 227.221327 193.274126 
L 227.500944 162.242377 
L 227.873766 171.885297 
L 228.386397 208.810198 
L 228.666014 207.361978 
L 228.712616 174.549571 
L 229.27185 148.392697 
L 229.831083 191.537874 
L 230.43692 192.768677 
L 230.530125 147.530874 
L 230.576728 172.146546 
L 231.229167 174.025105 
L 232.347634 182.100279 
L 232.487443 202.550891 
L 232.580648 155.61731 
L 232.813662 175.506726 
L 233.186484 154.861281 
L 234.025335 162.181414 
L 234.491363 162.840322 
L 235.050596 154.180717 
L 235.28361 210.946529 
L 235.330213 175.223179 
L 235.982652 170.722619 
L 236.588488 150.755692 
L 236.728296 166.327654 
L 236.774899 148.726627 
L 236.914708 192.049724 
L 237.007913 162.660742 
L 237.334133 187.86783 
L 237.427338 182.421504 
L 238.219586 166.217435 
L 238.312791 203.546318 
L 238.359394 196.460831 
L 238.545805 163.379083 
L 238.685614 204.405789 
L 239.757478 193.96034 
L 240.223506 166.51577 
L 240.96915 167.592293 
L 241.388576 161.288956 
L 241.481781 139.499138 
L 241.574987 170.533693 
L 241.947809 149.700418 
L 242.367234 180.221374 
L 242.507043 146.788685 
L 243.905126 184.612901 
L 244.184743 188.006827 
L 244.324551 140.763184 
L 244.510963 185.899382 
L 244.790579 194.172185 
L 245.256607 131.922774 
L 245.349813 144.061057 
L 245.489621 181.356233 
L 246.281869 180.502372 
L 246.46828 160.397229 
L 246.887705 150.924642 
L 247.30713 154.488349 
L 247.586747 181.740684 
L 247.819761 152.462267 
L 248.099377 140.584681 
L 248.845022 174.82721 
L 249.031433 153.530818 
L 249.124639 215.051348 
L 249.544064 187.96413 
L 249.777078 159.520646 
L 250.056695 140.017953 
L 250.336311 142.192358 
L 250.662531 179.713397 
L 252.386834 127.54823 
L 252.573245 222.25479 
L 252.759656 153.080751 
L 253.551904 170.833244 
L 254.111137 143.355085 
L 254.250946 180.520392 
L 255.276207 144.715125 
L 255.602427 177.750541 
L 255.742235 155.230725 
L 256.254866 158.912595 
L 256.720894 190.753087 
L 256.767496 165.603199 
L 256.907305 179.379369 
L 257.419936 186.878785 
L 258.118977 205.894691 
L 258.771416 155.684823 
L 259.051033 154.126986 
L 259.144239 187.594379 
L 259.470458 154.724081 
L 259.936486 191.563006 
L 260.076295 163.96548 
L 260.262706 200.04554 
L 260.449117 160.096532 
L 260.915145 170.670606 
L 261.520981 190.325505 
L 261.567584 177.372669 
L 262.359831 175.662103 
L 262.872462 192.394975 
L 263.524901 136.444377 
L 263.757915 161.940425 
L 264.037532 177.469484 
L 264.456957 158.653469 
L 265.249204 152.380677 
L 265.994849 158.129102 
L 266.134657 213.7311 
L 266.880302 238.366175 
L 267.579344 158.058872 
L 267.719152 169.561709 
L 267.765755 165.920551 
L 268.138577 192.199628 
L 268.231783 157.028593 
L 268.744414 165.568978 
L 269.117236 143.810734 
L 269.629867 129.902106 
L 269.816278 173.906547 
L 270.1891 184.322538 
L 271.260964 218.440058 
L 271.540581 166.228894 
L 271.726992 182.128651 
L 272.426034 183.650964 
L 272.705651 172.340313 
L 272.845459 175.968114 
L 272.938665 158.942785 
L 273.264884 168.915781 
L 273.404693 152.818227 
L 273.591104 169.877234 
L 273.777515 157.373438 
L 273.824118 212.916558 
L 274.756174 175.602276 
L 274.942585 136.436474 
L 275.222202 171.553086 
L 275.595024 181.797725 
L 276.061052 178.982609 
L 276.713491 152.278182 
L 276.853299 124.065669 
L 276.993108 192.746193 
L 278.484397 177.116389 
L 278.717411 170.418287 
L 278.764014 165.770638 
L 278.950425 165.682122 
L 279.183439 137.27933 
L 279.323247 178.856711 
L 279.556261 129.475472 
L 280.441714 206.94222 
L 280.628125 147.884285 
L 280.721331 178.3253 
L 281.000948 200.00144 
L 281.37377 146.714909 
L 281.420373 189.233817 
L 281.699989 135.260815 
L 281.839798 165.023549 
L 282.492237 183.090727 
L 282.818456 151.15508 
L 283.843718 143.228515 
L 284.169937 176.836398 
L 284.635965 162.769263 
L 284.682568 182.348084 
L 285.288404 181.270543 
L 285.940843 153.931826 
L 286.313666 209.719638 
L 286.406871 193.860167 
L 287.152516 145.497838 
L 287.338927 204.242865 
L 287.432133 159.114403 
L 287.758352 156.412983 
L 287.804955 172.739128 
L 288.643805 182.178738 
L 289.575861 171.481127 
L 290.181697 193.77177 
L 290.787534 192.011473 
L 290.880739 174.723224 
L 291.766192 135.21472 
L 291.952603 175.197949 
L 292.278823 187.331203 
L 292.465234 155.733615 
L 292.698248 170.119072 
L 294.142935 178.959294 
L 294.608962 199.864162 
L 294.655565 181.257364 
L 296.146855 181.924986 
L 297.265322 169.832285 
L 297.824555 180.366477 
L 298.150775 204.738948 
L 298.756611 148.64068 
L 298.803214 183.171794 
L 299.176036 125.607107 
L 299.502255 221.291035 
L 301.226559 185.253494 
L 301.41297 207.014356 
L 301.599381 124.68193 
L 301.925601 163.639197 
L 302.112012 147.694925 
L 302.25182 196.760263 
L 302.298423 174.062981 
L 302.857656 171.918539 
L 303.277082 175.530396 
L 303.789712 194.859664 
L 304.302343 165.67821 
L 304.395549 183.973651 
L 304.628562 188.380213 
L 304.721768 197.501938 
L 304.954782 163.277092 
L 305.234399 167.369562 
L 305.560618 178.418854 
L 306.166455 169.778178 
L 306.865496 167.803723 
L 306.912099 169.086243 
L 307.09851 243.20518 
L 307.42473 159.463842 
L 308.403388 202.762815 
L 308.729608 165.69211 
L 308.822814 209.416412 
L 308.916019 184.956038 
L 309.894678 167.986544 
L 309.941281 128.994583 
L 310.174295 225.119736 
L 310.360706 147.87573 
L 310.407308 174.048449 
L 310.640322 169.849415 
L 310.826734 157.211966 
L 311.945201 166.207971 
L 312.224817 178.090832 
L 312.318023 146.298905 
L 312.877256 169.441936 
L 313.389887 185.409701 
L 313.809312 153.120455 
L 313.855915 210.896304 
L 314.042326 158.785314 
L 314.508354 186.762964 
L 314.834574 165.73451 
L 315.020985 200.244503 
L 315.347204 169.193598 
L 315.813232 159.181293 
L 315.906438 151.155495 
L 316.139452 194.254813 
L 316.372466 159.180365 
L 316.465671 185.01055 
L 316.978302 199.115769 
L 318.189975 154.926541 
L 318.562797 189.986063 
L 318.702605 149.575548 
L 318.795811 212.61754 
L 318.842414 182.813246 
L 319.168633 189.578574 
L 319.44825 159.837209 
L 319.588058 205.402362 
L 320.473511 194.867547 
L 321.032745 157.557138 
L 321.498773 174.465244 
L 322.058006 208.123924 
L 323.223076 205.262989 
L 325.040585 194.332482 
L 325.506613 179.739991 
L 326.159052 169.176656 
L 326.392066 182.731843 
L 327.091108 169.013366 
L 327.976561 173.940393 
L 328.30278 184.916699 
L 328.442588 167.209739 
L 328.768808 221.433846 
L 329.095028 157.099188 
L 329.234836 174.033374 
L 329.561055 157.545066 
L 330.027083 164.721193 
L 330.120289 200.784686 
L 330.3067 164.576505 
L 330.399906 201.31339 
L 330.726125 164.099439 
L 331.052345 143.035035 
L 331.47177 179.708932 
L 331.844592 175.81009 
L 332.776648 164.785535 
L 333.848512 190.919074 
L 334.64076 195.453233 
L 335.433007 222.767173 
L 335.572815 213.583784 
L 336.038843 167.325857 
L 336.178652 201.991385 
L 336.784488 202.291785 
L 337.996161 182.400521 
L 339.254436 204.479704 
L 339.48745 196.48537 
L 339.627258 181.949012 
L 340.000081 175.753148 
L 340.279697 150.106682 
L 340.792328 167.284059 
L 341.211753 144.167217 
L 341.537973 185.602341 
L 341.817589 167.846697 
L 342.004001 197.916164 
L 342.097206 190.309481 
L 342.143809 170.86943 
L 343.541893 183.85048 
L 343.728304 152.436384 
L 343.774907 176.686455 
L 344.147729 164.767002 
L 345.219593 151.564742 
L 345.312799 172.068088 
L 345.359401 138.644151 
L 345.872032 217.691389 
L 346.011841 192.13415 
L 346.66428 208.983416 
L 346.943896 154.624126 
L 347.875952 208.339286 
L 348.108966 174.673335 
L 348.202172 205.899295 
L 348.295377 181.409916 
L 349.50705 197.426186 
L 350.858531 150.114526 
L 351.231353 156.984216 
L 351.51097 134.513628 
L 351.976998 180.625346 
L 352.163409 177.991272 
L 352.34982 178.869573 
L 352.536231 153.824422 
L 352.67604 198.876263 
L 352.769245 186.846501 
L 353.002259 172.96674 
L 353.375081 201.517272 
L 354.213932 195.990531 
L 354.67996 173.505223 
L 354.773165 177.734102 
L 355.099385 183.774807 
L 355.472207 195.723779 
L 355.658618 155.500827 
L 356.311057 194.136542 
L 356.963496 170.353184 
L 357.19651 223.446413 
L 357.243113 169.62291 
L 357.848949 179.875037 
L 358.128566 158.341727 
L 358.36158 175.913049 
L 358.408183 192.376165 
L 358.501388 187.110546 
L 358.641197 216.186345 
L 358.734402 190.137685 
L 358.874211 201.411863 
L 359.386841 154.513126 
L 360.598514 174.41658 
L 361.437364 201.740162 
L 362.136406 204.3968 
L 362.276214 199.289975 
L 362.322817 178.829465 
L 362.602434 177.195776 
L 363.068462 182.611003 
L 363.720901 173.66554 
L 364.37334 160.803156 
L 364.559751 191.150539 
L 364.69956 137.558095 
L 364.746162 208.367916 
L 366.004438 154.561078 
L 366.284054 168.24241 
L 366.423863 183.328277 
L 366.843288 185.965038 
L 367.122905 174.526345 
L 367.355919 184.298907 
L 367.402521 183.888099 
L 367.449124 166.385822 
L 367.54233 191.054001 
L 367.961755 157.257015 
L 368.194769 176.355292 
L 368.940414 151.679209 
L 369.033619 212.417096 
L 369.173428 213.74576 
L 369.406441 174.52845 
L 369.592853 195.88779 
L 370.338497 168.543047 
L 370.571511 198.433902 
L 370.990936 176.033612 
L 371.922992 212.76778 
L 372.482226 182.744626 
L 372.901651 193.25336 
L 373.041459 160.563907 
L 374.159926 182.853335 
L 374.672557 166.366449 
L 374.998776 187.080218 
L 375.138585 174.093576 
L 375.23179 214.757645 
L 375.324996 158.558759 
L 375.418201 195.237022 
L 375.697818 184.160562 
L 375.884229 181.634307 
L 377.142505 202.045304 
L 377.23571 165.087733 
L 377.841547 178.104683 
L 377.981355 201.529127 
L 378.260972 180.890656 
L 379.053219 170.592167 
L 379.23963 238.618286 
L 379.519247 148.27411 
L 379.938672 188.808389 
L 379.985275 179.02499 
L 380.4047 164.92874 
L 380.544508 185.097189 
L 380.684317 156.994658 
L 380.917331 169.863147 
L 381.010536 155.570592 
L 381.290153 180.572237 
L 381.709578 157.503515 
L 382.035798 168.960257 
L 382.222209 170.799151 
L 382.455223 145.178954 
L 383.24747 235.799969 
L 384.272732 155.554213 
L 384.365937 203.537091 
L 384.505746 124.639391 
L 385.018376 198.384309 
L 385.344596 185.148994 
L 385.670815 162.572918 
L 386.369857 187.248417 
L 387.068899 185.923329 
L 387.115502 220.287211 
L 387.395119 160.036744 
L 387.861147 159.507399 
L 388.094161 158.942232 
L 388.187366 185.945636 
L 388.327174 162.78417 
L 388.839805 197.698589 
L 389.119422 174.399588 
L 389.58545 162.743093 
L 389.632053 183.844711 
L 389.725258 176.973361 
L 390.331094 161.21757 
L 390.75052 196.589356 
L 390.797122 177.44368 
L 392.008795 149.331586 
L 392.335014 191.068207 
L 393.406879 197.056376 
L 393.733098 167.805047 
L 393.872907 196.141384 
L 394.152523 205.08493 
L 395.923429 184.110456 
L 396.529266 179.437951 
L 396.575868 148.579134 
L 396.669074 197.007672 
L 396.948691 194.278938 
L 397.088499 207.995241 
L 397.927349 187.268076 
L 398.300172 187.958183 
L 398.7662 176.561684 
L 399.884667 180.29525 
L 400.071078 188.542091 
L 400.4439 220.135312 
L 400.630311 166.130065 
L 401.049736 174.534525 
L 401.096339 182.773236 
L 401.935189 139.981559 
L 402.354614 197.732118 
L 402.634231 156.866409 
L 403.61289 180.829406 
L 403.845904 194.606466 
L 404.032315 195.597861 
L 404.12552 159.307478 
L 404.731357 160.712675 
L 404.824562 169.544826 
L 404.964371 208.183791 
L 405.197385 158.078196 
L 405.383796 221.493535 
L 405.849824 164.043129 
L 406.222646 189.749619 
L 406.595468 159.11459 
L 407.713935 191.62797 
L 408.040155 196.19882 
L 408.552786 167.596581 
L 408.739197 204.494898 
L 408.879005 184.357944 
L 409.717855 208.837128 
L 409.904267 148.890104 
L 410.090678 209.456146 
L 410.183883 198.377947 
L 410.743117 213.351984 
L 411.535364 177.898745 
L 411.535364 177.898745 
" clip-path="url(#pee47741018)" style="fill: none; stroke: #aaaaaa; stroke-opacity: 0.55; stroke-width: 0.6; stroke-linecap: square"/>
   </g>
   <g id="matplotlib.axis_1">
    <g id="xtick_1">
     <g id="line2d_2">
      <path d="M 62.019095 254.64351 
L 62.019095 3.00024 
" clip-path="url(#pee47741018)" style="fill: none; stroke: #b0b0b0; stroke-opacity: 0.3; stroke-width: 0.5; stroke-linecap: square"/>
     </g>
     <g id="line2d_3">
      <defs>
       <path id="m20553aa5ee" d="M 0 0 
L 0 3.5 
" style="stroke: #000000; stroke-width: 0.8"/>
      </defs>
      <g>
       <use xlink:href="#m20553aa5ee" x="62.019095" y="254.64351" style="stroke: #000000; stroke-width: 0.8"/>
      </g>
     </g>
     <g id="text_1">
      <!-- 0 -->
      <g transform="translate(58.837845 269.241947) scale(0.1 -0.1)">
       <defs>
        <path id="DejaVuSans-30" d="M 2034 4250 
Q 1547 4250 1301 3770 
Q 1056 3291 1056 2328 
Q 1056 1369 1301 889 
Q 1547 409 2034 409 
Q 2525 409 2770 889 
Q 3016 1369 3016 2328 
Q 3016 3291 2770 3770 
Q 2525 4250 2034 4250 
z
M 2034 4750 
Q 2819 4750 3233 4129 
Q 3647 3509 3647 2328 
Q 3647 1150 3233 529 
Q 2819 -91 2034 -91 
Q 1250 -91 836 529 
Q 422 1150 422 2328 
Q 422 3509 836 4129 
Q 1250 4750 2034 4750 
z
" transform="scale(0.015625)"/>
       </defs>
       <use xlink:href="#DejaVuSans-30"/>
      </g>
     </g>
    </g>
    <g id="xtick_2">
     <g id="line2d_4">
      <path d="M 117.569621 254.64351 
L 117.569621 3.00024 
" clip-path="url(#pee47741018)" style="fill: none; stroke: #b0b0b0; stroke-opacity: 0.3; stroke-width: 0.5; stroke-linecap: square"/>
     </g>
     <g id="line2d_5">
      <g>
       <use xlink:href="#m20553aa5ee" x="117.569621" y="254.64351" style="stroke: #000000; stroke-width: 0.8"/>
      </g>
     </g>
     <g id="text_2">
      <!-- 10 -->
      <g transform="translate(111.207121 269.241947) scale(0.1 -0.1)">
       <defs>
        <path id="DejaVuSans-31" d="M 794 531 
L 1825 531 
L 1825 4091 
L 703 3866 
L 703 4441 
L 1819 4666 
L 2450 4666 
L 2450 531 
L 3481 531 
L 3481 0 
L 794 0 
L 794 531 
z
" transform="scale(0.015625)"/>
       </defs>
       <use xlink:href="#DejaVuSans-31"/>
       <use xlink:href="#DejaVuSans-30" transform="translate(63.623047 0)"/>
      </g>
     </g>
    </g>
    <g id="xtick_3">
     <g id="line2d_6">
      <path d="M 173.120148 254.64351 
L 173.120148 3.00024 
" clip-path="url(#pee47741018)" style="fill: none; stroke: #b0b0b0; stroke-opacity: 0.3; stroke-width: 0.5; stroke-linecap: square"/>
     </g>
     <g id="line2d_7">
      <g>
       <use xlink:href="#m20553aa5ee" x="173.120148" y="254.64351" style="stroke: #000000; stroke-width: 0.8"/>
      </g>
     </g>
     <g id="text_3">
      <!-- 20 -->
      <g transform="translate(166.757648 269.241947) scale(0.1 -0.1)">
       <defs>
        <path id="DejaVuSans-32" d="M 1228 531 
L 3431 531 
L 3431 0 
L 469 0 
L 469 531 
Q 828 903 1448 1529 
Q 2069 2156 2228 2338 
Q 2531 2678 2651 2914 
Q 2772 3150 2772 3378 
Q 2772 3750 2511 3984 
Q 2250 4219 1831 4219 
Q 1534 4219 1204 4116 
Q 875 4013 500 3803 
L 500 4441 
Q 881 4594 1212 4672 
Q 1544 4750 1819 4750 
Q 2544 4750 2975 4387 
Q 3406 4025 3406 3419 
Q 3406 3131 3298 2873 
Q 3191 2616 2906 2266 
Q 2828 2175 2409 1742 
Q 1991 1309 1228 531 
z
" transform="scale(0.015625)"/>
       </defs>
       <use xlink:href="#DejaVuSans-32"/>
       <use xlink:href="#DejaVuSans-30" transform="translate(63.623047 0)"/>
      </g>
     </g>
    </g>
    <g id="xtick_4">
     <g id="line2d_8">
      <path d="M 228.670674 254.64351 
L 228.670674 3.00024 
" clip-path="url(#pee47741018)" style="fill: none; stroke: #b0b0b0; stroke-opacity: 0.3; stroke-width: 0.5; stroke-linecap: square"/>
     </g>
     <g id="line2d_9">
      <g>
       <use xlink:href="#m20553aa5ee" x="228.670674" y="254.64351" style="stroke: #000000; stroke-width: 0.8"/>
      </g>
     </g>
     <g id="text_4">
      <!-- 30 -->
      <g transform="translate(222.308174 269.241947) scale(0.1 -0.1)">
       <defs>
        <path id="DejaVuSans-33" d="M 2597 2516 
Q 3050 2419 3304 2112 
Q 3559 1806 3559 1356 
Q 3559 666 3084 287 
Q 2609 -91 1734 -91 
Q 1441 -91 1130 -33 
Q 819 25 488 141 
L 488 750 
Q 750 597 1062 519 
Q 1375 441 1716 441 
Q 2309 441 2620 675 
Q 2931 909 2931 1356 
Q 2931 1769 2642 2001 
Q 2353 2234 1838 2234 
L 1294 2234 
L 1294 2753 
L 1863 2753 
Q 2328 2753 2575 2939 
Q 2822 3125 2822 3475 
Q 2822 3834 2567 4026 
Q 2313 4219 1838 4219 
Q 1578 4219 1281 4162 
Q 984 4106 628 3988 
L 628 4550 
Q 988 4650 1302 4700 
Q 1616 4750 1894 4750 
Q 2613 4750 3031 4423 
Q 3450 4097 3450 3541 
Q 3450 3153 3228 2886 
Q 3006 2619 2597 2516 
z
" transform="scale(0.015625)"/>
       </defs>
       <use xlink:href="#DejaVuSans-33"/>
       <use xlink:href="#DejaVuSans-30" transform="translate(63.623047 0)"/>
      </g>
     </g>
    </g>
    <g id="xtick_5">
     <g id="line2d_10">
      <path d="M 284.2212 254.64351 
L 284.2212 3.00024 
" clip-path="url(#pee47741018)" style="fill: none; stroke: #b0b0b0; stroke-opacity: 0.3; stroke-width: 0.5; stroke-linecap: square"/>
     </g>
     <g id="line2d_11">
      <g>
       <use xlink:href="#m20553aa5ee" x="284.2212" y="254.64351" style="stroke: #000000; stroke-width: 0.8"/>
      </g>
     </g>
     <g id="text_5">
      <!-- 40 -->
      <g transform="translate(277.8587 269.241947) scale(0.1 -0.1)">
       <defs>
        <path id="DejaVuSans-34" d="M 2419 4116 
L 825 1625 
L 2419 1625 
L 2419 4116 
z
M 2253 4666 
L 3047 4666 
L 3047 1625 
L 3713 1625 
L 3713 1100 
L 3047 1100 
L 3047 0 
L 2419 0 
L 2419 1100 
L 313 1100 
L 313 1709 
L 2253 4666 
z
" transform="scale(0.015625)"/>
       </defs>
       <use xlink:href="#DejaVuSans-34"/>
       <use xlink:href="#DejaVuSans-30" transform="translate(63.623047 0)"/>
      </g>
     </g>
    </g>
    <g id="xtick_6">
     <g id="line2d_12">
      <path d="M 339.771727 254.64351 
L 339.771727 3.00024 
" clip-path="url(#pee47741018)" style="fill: none; stroke: #b0b0b0; stroke-opacity: 0.3; stroke-width: 0.5; stroke-linecap: square"/>
     </g>
     <g id="line2d_13">
      <g>
       <use xlink:href="#m20553aa5ee" x="339.771727" y="254.64351" style="stroke: #000000; stroke-width: 0.8"/>
      </g>
     </g>
     <g id="text_6">
      <!-- 50 -->
      <g transform="translate(333.409227 269.241947) scale(0.1 -0.1)">
       <defs>
        <path id="DejaVuSans-35" d="M 691 4666 
L 3169 4666 
L 3169 4134 
L 1269 4134 
L 1269 2991 
Q 1406 3038 1543 3061 
Q 1681 3084 1819 3084 
Q 2600 3084 3056 2656 
Q 3513 2228 3513 1497 
Q 3513 744 3044 326 
Q 2575 -91 1722 -91 
Q 1428 -91 1123 -41 
Q 819 9 494 109 
L 494 744 
Q 775 591 1075 516 
Q 1375 441 1709 441 
Q 2250 441 2565 725 
Q 2881 1009 2881 1497 
Q 2881 1984 2565 2268 
Q 2250 2553 1709 2553 
Q 1456 2553 1204 2497 
Q 953 2441 691 2322 
L 691 4666 
z
" transform="scale(0.015625)"/>
       </defs>
       <use xlink:href="#DejaVuSans-35"/>
       <use xlink:href="#DejaVuSans-30" transform="translate(63.623047 0)"/>
      </g>
     </g>
    </g>
    <g id="xtick_7">
     <g id="line2d_14">
      <path d="M 395.322253 254.64351 
L 395.322253 3.00024 
" clip-path="url(#pee47741018)" style="fill: none; stroke: #b0b0b0; stroke-opacity: 0.3; stroke-width: 0.5; stroke-linecap: square"/>
     </g>
     <g id="line2d_15">
      <g>
       <use xlink:href="#m20553aa5ee" x="395.322253" y="254.64351" style="stroke: #000000; stroke-width: 0.8"/>
      </g>
     </g>
     <g id="text_7">
      <!-- 60 -->
      <g transform="translate(388.959753 269.241947) scale(0.1 -0.1)">
       <defs>
        <path id="DejaVuSans-36" d="M 2113 2584 
Q 1688 2584 1439 2293 
Q 1191 2003 1191 1497 
Q 1191 994 1439 701 
Q 1688 409 2113 409 
Q 2538 409 2786 701 
Q 3034 994 3034 1497 
Q 3034 2003 2786 2293 
Q 2538 2584 2113 2584 
z
M 3366 4563 
L 3366 3988 
Q 3128 4100 2886 4159 
Q 2644 4219 2406 4219 
Q 1781 4219 1451 3797 
Q 1122 3375 1075 2522 
Q 1259 2794 1537 2939 
Q 1816 3084 2150 3084 
Q 2853 3084 3261 2657 
Q 3669 2231 3669 1497 
Q 3669 778 3244 343 
Q 2819 -91 2113 -91 
Q 1303 -91 875 529 
Q 447 1150 447 2328 
Q 447 3434 972 4092 
Q 1497 4750 2381 4750 
Q 2619 4750 2861 4703 
Q 3103 4656 3366 4563 
z
" transform="scale(0.015625)"/>
       </defs>
       <use xlink:href="#DejaVuSans-36"/>
       <use xlink:href="#DejaVuSans-30" transform="translate(63.623047 0)"/>
      </g>
     </g>
    </g>
    <g id="text_8">
     <!-- Epoch -->
     <g transform="translate(221.580469 282.920073) scale(0.1 -0.1)">
      <defs>
       <path id="DejaVuSans-45" d="M 628 4666 
L 3578 4666 
L 3578 4134 
L 1259 4134 
L 1259 2753 
L 3481 2753 
L 3481 2222 
L 1259 2222 
L 1259 531 
L 3634 531 
L 3634 0 
L 628 0 
L 628 4666 
z
" transform="scale(0.015625)"/>
       <path id="DejaVuSans-70" d="M 1159 525 
L 1159 -1331 
L 581 -1331 
L 581 3500 
L 1159 3500 
L 1159 2969 
Q 1341 3281 1617 3432 
Q 1894 3584 2278 3584 
Q 2916 3584 3314 3078 
Q 3713 2572 3713 1747 
Q 3713 922 3314 415 
Q 2916 -91 2278 -91 
Q 1894 -91 1617 61 
Q 1341 213 1159 525 
z
M 3116 1747 
Q 3116 2381 2855 2742 
Q 2594 3103 2138 3103 
Q 1681 3103 1420 2742 
Q 1159 2381 1159 1747 
Q 1159 1113 1420 752 
Q 1681 391 2138 391 
Q 2594 391 2855 752 
Q 3116 1113 3116 1747 
z
" transform="scale(0.015625)"/>
       <path id="DejaVuSans-6f" d="M 1959 3097 
Q 1497 3097 1228 2736 
Q 959 2375 959 1747 
Q 959 1119 1226 758 
Q 1494 397 1959 397 
Q 2419 397 2687 759 
Q 2956 1122 2956 1747 
Q 2956 2369 2687 2733 
Q 2419 3097 1959 3097 
z
M 1959 3584 
Q 2709 3584 3137 3096 
Q 3566 2609 3566 1747 
Q 3566 888 3137 398 
Q 2709 -91 1959 -91 
Q 1206 -91 779 398 
Q 353 888 353 1747 
Q 353 2609 779 3096 
Q 1206 3584 1959 3584 
z
" transform="scale(0.015625)"/>
       <path id="DejaVuSans-63" d="M 3122 3366 
L 3122 2828 
Q 2878 2963 2633 3030 
Q 2388 3097 2138 3097 
Q 1578 3097 1268 2742 
Q 959 2388 959 1747 
Q 959 1106 1268 751 
Q 1578 397 2138 397 
Q 2388 397 2633 464 
Q 2878 531 3122 666 
L 3122 134 
Q 2881 22 2623 -34 
Q 2366 -91 2075 -91 
Q 1284 -91 818 406 
Q 353 903 353 1747 
Q 353 2603 823 3093 
Q 1294 3584 2113 3584 
Q 2378 3584 2631 3529 
Q 2884 3475 3122 3366 
z
" transform="scale(0.015625)"/>
       <path id="DejaVuSans-68" d="M 3513 2113 
L 3513 0 
L 2938 0 
L 2938 2094 
Q 2938 2591 2744 2837 
Q 2550 3084 2163 3084 
Q 1697 3084 1428 2787 
Q 1159 2491 1159 1978 
L 1159 0 
L 581 0 
L 581 4863 
L 1159 4863 
L 1159 2956 
Q 1366 3272 1645 3428 
Q 1925 3584 2291 3584 
Q 2894 3584 3203 3211 
Q 3513 2838 3513 2113 
z
" transform="scale(0.015625)"/>
      </defs>
      <use xlink:href="#DejaVuSans-45"/>
      <use xlink:href="#DejaVuSans-70" transform="translate(63.183594 0)"/>
      <use xlink:href="#DejaVuSans-6f" transform="translate(126.660156 0)"/>
      <use xlink:href="#DejaVuSans-63" transform="translate(187.841797 0)"/>
      <use xlink:href="#DejaVuSans-68" transform="translate(242.822266 0)"/>
     </g>
    </g>
   </g>
   <g id="matplotlib.axis_2">
    <g id="ytick_1">
     <g id="line2d_16">
      <path d="M 44.783053 215.982798 
L 428.99976 215.982798 
" clip-path="url(#pee47741018)" style="fill: none; stroke: #b0b0b0; stroke-opacity: 0.3; stroke-width: 0.5; stroke-linecap: square"/>
     </g>
     <g id="line2d_17">
      <defs>
       <path id="m4f20e7bd89" d="M 0 0 
L -3.5 0 
" style="stroke: #000000; stroke-width: 0.8"/>
      </defs>
      <g>
       <use xlink:href="#m4f20e7bd89" x="44.783053" y="215.982798" style="stroke: #000000; stroke-width: 0.8"/>
      </g>
     </g>
     <g id="text_9">
      <!-- −20 -->
      <g transform="translate(16.678365 219.782017) scale(0.1 -0.1)">
       <defs>
        <path id="DejaVuSans-2212" d="M 678 2272 
L 4684 2272 
L 4684 1741 
L 678 1741 
L 678 2272 
z
" transform="scale(0.015625)"/>
       </defs>
       <use xlink:href="#DejaVuSans-2212"/>
       <use xlink:href="#DejaVuSans-32" transform="translate(83.789062 0)"/>
       <use xlink:href="#DejaVuSans-30" transform="translate(147.412109 0)"/>
      </g>
     </g>
    </g>
    <g id="ytick_2">
     <g id="line2d_18">
      <path d="M 44.783053 164.188449 
L 428.99976 164.188449 
" clip-path="url(#pee47741018)" style="fill: none; stroke: #b0b0b0; stroke-opacity: 0.3; stroke-width: 0.5; stroke-linecap: square"/>
     </g>
     <g id="line2d_19">
      <g>
       <use xlink:href="#m4f20e7bd89" x="44.783053" y="164.188449" style="stroke: #000000; stroke-width: 0.8"/>
      </g>
     </g>
     <g id="text_10">
      <!-- −15 -->
      <g transform="translate(16.678365 167.987667) scale(0.1 -0.1)">
       <use xlink:href="#DejaVuSans-2212"/>
       <use xlink:href="#DejaVuSans-31" transform="translate(83.789062 0)"/>
       <use xlink:href="#DejaVuSans-35" transform="translate(147.412109 0)"/>
      </g>
     </g>
    </g>
    <g id="ytick_3">
     <g id="line2d_20">
      <path d="M 44.783053 112.394099 
L 428.99976 112.394099 
" clip-path="url(#pee47741018)" style="fill: none; stroke: #b0b0b0; stroke-opacity: 0.3; stroke-width: 0.5; stroke-linecap: square"/>
     </g>
     <g id="line2d_21">
      <g>
       <use xlink:href="#m4f20e7bd89" x="44.783053" y="112.394099" style="stroke: #000000; stroke-width: 0.8"/>
      </g>
     </g>
     <g id="text_11">
      <!-- −10 -->
      <g transform="translate(16.678365 116.193318) scale(0.1 -0.1)">
       <use xlink:href="#DejaVuSans-2212"/>
       <use xlink:href="#DejaVuSans-31" transform="translate(83.789062 0)"/>
       <use xlink:href="#DejaVuSans-30" transform="translate(147.412109 0)"/>
      </g>
     </g>
    </g>
    <g id="ytick_4">
     <g id="line2d_22">
      <path d="M 44.783053 60.59975 
L 428.99976 60.59975 
" clip-path="url(#pee47741018)" style="fill: none; stroke: #b0b0b0; stroke-opacity: 0.3; stroke-width: 0.5; stroke-linecap: square"/>
     </g>
     <g id="line2d_23">
      <g>
       <use xlink:href="#m4f20e7bd89" x="44.783053" y="60.59975" style="stroke: #000000; stroke-width: 0.8"/>
      </g>
     </g>
     <g id="text_12">
      <!-- −5 -->
      <g transform="translate(23.040865 64.398969) scale(0.1 -0.1)">
       <use xlink:href="#DejaVuSans-2212"/>
       <use xlink:href="#DejaVuSans-35" transform="translate(83.789062 0)"/>
      </g>
     </g>
    </g>
    <g id="ytick_5">
     <g id="line2d_24">
      <path d="M 44.783053 8.8054 
L 428.99976 8.8054 
" clip-path="url(#pee47741018)" style="fill: none; stroke: #b0b0b0; stroke-opacity: 0.3; stroke-width: 0.5; stroke-linecap: square"/>
     </g>
     <g id="line2d_25">
      <g>
       <use xlink:href="#m4f20e7bd89" x="44.783053" y="8.8054" style="stroke: #000000; stroke-width: 0.8"/>
      </g>
     </g>
     <g id="text_13">
      <!-- 0 -->
      <g transform="translate(31.420553 12.604619) scale(0.1 -0.1)">
       <use xlink:href="#DejaVuSans-30"/>
      </g>
     </g>
    </g>
    <g id="text_14">
     <!-- Loss -->
     <g transform="translate(10.598678 139.789062) rotate(-90) scale(0.1 -0.1)">
      <defs>
       <path id="DejaVuSans-4c" d="M 628 4666 
L 1259 4666 
L 1259 531 
L 3531 531 
L 3531 0 
L 628 0 
L 628 4666 
z
" transform="scale(0.015625)"/>
       <path id="DejaVuSans-73" d="M 2834 3397 
L 2834 2853 
Q 2591 2978 2328 3040 
Q 2066 3103 1784 3103 
Q 1356 3103 1142 2972 
Q 928 2841 928 2578 
Q 928 2378 1081 2264 
Q 1234 2150 1697 2047 
L 1894 2003 
Q 2506 1872 2764 1633 
Q 3022 1394 3022 966 
Q 3022 478 2636 193 
Q 2250 -91 1575 -91 
Q 1294 -91 989 -36 
Q 684 19 347 128 
L 347 722 
Q 666 556 975 473 
Q 1284 391 1588 391 
Q 1994 391 2212 530 
Q 2431 669 2431 922 
Q 2431 1156 2273 1281 
Q 2116 1406 1581 1522 
L 1381 1569 
Q 847 1681 609 1914 
Q 372 2147 372 2553 
Q 372 3047 722 3315 
Q 1072 3584 1716 3584 
Q 2034 3584 2315 3537 
Q 2597 3491 2834 3397 
z
" transform="scale(0.015625)"/>
      </defs>
      <use xlink:href="#DejaVuSans-4c"/>
      <use xlink:href="#DejaVuSans-6f" transform="translate(53.962891 0)"/>
      <use xlink:href="#DejaVuSans-73" transform="translate(115.144531 0)"/>
      <use xlink:href="#DejaVuSans-73" transform="translate(167.244141 0)"/>
     </g>
    </g>
   </g>
   <g id="line2d_26">
    <path d="M 67.569487 110.299605 
L 73.12454 118.124772 
L 78.679592 122.588405 
L 84.234645 125.50406 
L 89.789698 127.468299 
L 95.34475 128.940565 
L 100.899803 131.036915 
L 106.454856 131.973039 
L 112.009908 136.522401 
L 117.564961 140.539218 
L 123.120013 143.149671 
L 128.675066 147.601647 
L 134.230119 152.25879 
L 139.785171 150.815519 
L 145.340224 155.385401 
L 150.895277 150.312333 
L 156.450329 157.815543 
L 162.005382 159.583714 
L 167.560435 161.592359 
L 173.115487 158.816383 
L 178.67054 163.050804 
L 184.225593 162.909268 
L 189.780645 165.65041 
L 195.335698 166.047121 
L 200.89075 166.668262 
L 206.445803 164.241202 
L 212.000856 165.576506 
L 217.555908 167.028914 
L 223.110961 168.534897 
L 228.666014 169.159378 
L 234.221066 168.774235 
L 239.776119 170.886689 
L 245.331172 169.935728 
L 250.886224 169.436572 
L 256.441277 169.802589 
L 261.99633 172.593531 
L 267.551382 171.909599 
L 273.106435 173.842038 
L 278.661488 173.867209 
L 284.21654 172.281454 
L 289.771593 172.178258 
L 295.326645 171.845306 
L 300.881698 174.149452 
L 306.436751 173.172114 
L 311.991803 176.917643 
L 317.546856 176.320399 
L 323.101909 177.677061 
L 328.656961 175.054822 
L 334.212014 176.885122 
L 339.767067 177.744554 
L 345.322119 177.68036 
L 350.877172 175.120043 
L 356.432225 178.957081 
L 361.987277 180.049974 
L 367.54233 179.450379 
L 373.097382 180.863627 
L 378.652435 178.728304 
L 384.207488 175.763264 
L 389.76254 180.255161 
L 395.317593 180.280154 
L 400.872646 179.694785 
L 406.427698 179.87889 
" clip-path="url(#pee47741018)" style="fill: none; stroke-dasharray: 6.66,2.88; stroke-dashoffset: 0; stroke: #d62728; stroke-width: 1.8"/>
   </g>
   <g id="patch_3">
    <path d="M 44.783053 254.64351 
L 44.783053 3.00024 
" style="fill: none; stroke: #000000; stroke-width: 0.8; stroke-linejoin: miter; stroke-linecap: square"/>
   </g>
   <g id="patch_4">
    <path d="M 428.99976 254.64351 
L 428.99976 3.00024 
" style="fill: none; stroke: #000000; stroke-width: 0.8; stroke-linejoin: miter; stroke-linecap: square"/>
   </g>
   <g id="patch_5">
    <path d="M 44.783053 254.64351 
L 428.99976 254.64351 
" style="fill: none; stroke: #000000; stroke-width: 0.8; stroke-linejoin: miter; stroke-linecap: square"/>
   </g>
   <g id="patch_6">
    <path d="M 44.783053 3.00024 
L 428.99976 3.00024 
" style="fill: none; stroke: #000000; stroke-width: 0.8; stroke-linejoin: miter; stroke-linecap: square"/>
   </g>
   <g id="line2d_27">
    <path d="M 62.247448 14.43857 
L 62.899887 18.522398 
L 63.27271 22.800671 
L 63.319312 26.408731 
L 64.251368 33.775829 
L 64.297971 35.583542 
L 64.95041 40.379385 
L 64.997013 44.25429 
L 65.369835 51.51739 
L 66.208686 61.401829 
L 66.674713 63.795862 
L 67.047536 69.417594 
L 67.886386 71.578421 
L 68.1194 77.866023 
L 68.771839 80.991934 
L 68.911647 84.743566 
L 69.377675 86.749332 
L 69.517484 86.351137 
L 69.703895 89.39487 
L 70.96217 93.080948 
L 71.521404 93.589802 
L 71.614609 95.151652 
L 71.987432 96.077522 
L 72.733076 99.278354 
L 73.432118 100.254355 
L 73.478721 101.418927 
L 74.084557 103.083269 
L 74.13116 103.960897 
L 74.690393 103.846037 
L 74.830202 107.622546 
L 75.203024 107.362419 
L 75.342832 107.781264 
L 75.575846 106.719182 
L 75.80886 108.15656 
L 76.414697 109.686493 
L 76.787519 108.797015 
L 76.927327 109.403252 
L 77.067136 110.247971 
L 78.139 110.680125 
L 78.185603 109.938685 
L 78.744836 110.63401 
L 79.024453 109.399369 
L 79.071056 108.2989 
L 79.117659 112.945408 
L 80.049714 113.645078 
L 80.236125 113.944536 
L 80.329331 113.375217 
L 80.888565 116.154201 
L 81.401195 116.126278 
L 81.727415 116.3432 
L 82.426457 119.982918 
L 82.519662 120.768147 
L 82.845882 120.953983 
L 83.544924 120.363532 
L 83.731335 120.765823 
L 83.964349 120.832081 
L 84.15076 120.383076 
L 84.197363 119.793096 
L 84.476979 120.331755 
L 84.756596 119.971072 
L 85.82846 119.755735 
L 85.921666 120.164252 
L 85.968269 118.838934 
L 86.014872 119.218879 
L 86.15468 119.250901 
L 86.247885 119.506291 
L 86.946927 122.200794 
L 87.226544 118.801534 
L 87.412955 120.424267 
L 87.506161 120.051277 
L 87.785778 118.072891 
L 87.972189 118.11545 
L 88.345011 121.515404 
L 88.531422 120.44671 
L 89.277067 120.738792 
L 89.8363 119.667763 
L 90.675151 119.462102 
L 91.374192 118.717714 
L 92.026632 119.423218 
L 92.073234 120.004238 
L 92.725673 120.67722 
L 93.517921 119.846805 
L 93.564524 120.05039 
L 94.310168 120.867453 
L 94.403374 119.289294 
L 95.661649 118.043517 
L 95.987869 122.224258 
L 96.127677 120.078359 
L 96.733513 121.998045 
L 97.665569 122.23836 
L 98.1782 123.173824 
L 98.224803 122.837617 
L 98.504419 122.017555 
L 98.784036 122.784128 
L 99.529681 121.917524 
L 99.669489 120.872584 
L 100.228723 121.208382 
L 100.834559 119.378426 
L 101.34719 120.600299 
L 101.999629 120.117733 
L 102.652068 122.465643 
L 103.35111 122.947779 
L 103.86374 122.848143 
L 104.050152 124.363205 
L 105.960866 125.670847 
L 106.287085 127.917187 
L 106.939525 130.148253 
L 108.617225 129.97894 
L 108.850239 129.417595 
L 109.689089 130.268581 
L 109.968706 134.333112 
L 111.273584 134.259304 
L 111.926023 133.083604 
L 111.972626 132.624228 
L 112.065831 135.161728 
L 112.252243 133.513202 
L 112.671668 135.286606 
L 113.230901 132.914385 
L 113.417312 135.432829 
L 113.510518 135.415462 
L 113.743532 136.419354 
L 113.836738 135.021549 
L 114.302765 136.86724 
L 114.489177 136.3241 
L 114.815396 135.830106 
L 114.908602 134.416602 
L 115.141616 134.356163 
L 115.467835 134.913797 
L 115.700849 133.907353 
L 115.747452 135.975767 
L 116.306685 136.937276 
L 116.772713 136.234963 
L 116.912522 138.785291 
L 117.238741 139.630091 
L 117.658166 138.525615 
L 117.704769 137.814398 
L 118.264003 137.622884 
L 118.636825 137.85277 
L 118.823236 139.119305 
L 119.149456 137.903195 
L 120.034909 137.822026 
L 120.128114 137.333726 
L 120.640745 140.274674 
L 120.827156 139.317627 
L 121.293184 138.434816 
L 121.526198 137.077388 
L 121.805815 139.335619 
L 122.178637 139.584722 
L 122.551459 138.604764 
L 122.924282 139.297121 
L 123.669926 141.982199 
L 123.809735 142.092664 
L 123.856338 143.764352 
L 124.275763 144.950294 
L 124.741791 145.004528 
L 125.440832 145.260841 
L 125.627244 145.063732 
L 126.139874 146.892871 
L 126.186477 146.152717 
L 126.372888 146.485084 
L 128.097191 147.485969 
L 129.07585 147.359297 
L 129.122453 147.122508 
L 129.961303 147.567878 
L 130.007906 148.393023 
L 130.147714 148.30849 
L 130.753551 147.622085 
L 130.846756 147.024165 
L 131.359387 148.97236 
L 131.499195 148.569392 
L 131.685606 150.076576 
L 132.058429 150.220496 
L 132.384648 149.09097 
L 132.571059 150.705308 
L 132.710868 152.742918 
L 133.270101 152.899193 
L 133.549718 152.745503 
L 133.736129 153.761281 
L 134.202157 153.799086 
L 134.341965 156.675946 
L 134.994404 157.642166 
L 135.134213 157.424146 
L 135.367227 157.281724 
L 135.507035 158.187199 
L 135.92646 159.571842 
L 136.672105 156.116283 
L 136.765311 156.569636 
L 137.883778 158.562759 
L 138.2566 158.921435 
L 138.349805 158.208021 
L 138.815833 156.564739 
L 139.142053 156.011689 
L 139.887698 156.440902 
L 140.586739 154.233161 
L 141.006164 155.20475 
L 141.472192 155.357156 
L 141.612001 156.245886 
L 141.751809 155.4905 
L 141.798412 155.980274 
L 142.124631 155.484292 
L 142.683865 153.363389 
L 143.10329 153.892155 
L 143.382907 155.150006 
L 143.802332 154.369175 
L 144.314963 154.555751 
L 144.780991 153.677394 
L 144.874196 152.876233 
L 145.200416 154.210271 
L 145.43343 154.099393 
L 145.94606 155.359533 
L 146.831513 156.958849 
L 148.136391 156.572105 
L 148.322803 155.641483 
L 148.742228 155.055042 
L 148.975242 155.331404 
L 149.068447 157.164238 
L 150.559737 156.368965 
L 150.699545 155.719287 
L 150.979162 157.118607 
L 151.025764 155.518224 
L 151.724806 155.187191 
L 151.771409 155.44246 
L 152.28404 152.17121 
L 152.470451 152.430611 
L 152.703465 151.758434 
L 152.796671 152.611609 
L 153.216096 151.696146 
L 153.44911 152.531332 
L 153.542315 153.818972 
L 153.588918 153.585677 
L 153.682124 152.643198 
L 154.28796 154.521662 
L 154.660782 154.675869 
L 154.707385 156.916902 
L 154.847193 156.962597 
L 156.478291 156.60135 
L 158.528814 156.65802 
L 158.948239 154.980229 
L 159.926897 156.038111 
L 160.066706 157.557452 
L 160.346323 156.873085 
L 160.579337 157.857783 
L 160.625939 159.761671 
L 160.858953 161.40622 
L 161.185173 161.261343 
L 161.744406 161.330381 
L 162.676462 161.100093 
L 163.14249 160.385894 
L 163.98134 159.651033 
L 164.30756 158.600072 
L 165.006602 158.932847 
L 165.286218 160.592625 
L 165.752246 159.894813 
L 166.264877 159.351728 
L 166.637699 159.690181 
L 167.243536 159.286388 
L 168.362003 159.821621 
L 169.48047 158.998663 
L 169.9931 158.440021 
L 170.365923 160.133066 
L 170.738745 161.694171 
L 171.204773 162.966911 
L 171.670801 162.728571 
L 171.99702 162.222385 
L 173.395104 160.376231 
L 173.581515 162.299701 
L 173.628118 161.493055 
L 173.814529 163.454421 
L 175.352421 162.079198 
L 175.585435 163.105655 
L 175.818449 161.74868 
L 176.424285 162.630777 
L 176.936916 161.79278 
L 177.868972 161.232727 
L 178.474808 161.325537 
L 178.568014 163.655869 
L 178.707822 162.840972 
L 178.84763 158.497057 
L 179.360261 158.725775 
L 179.872892 160.956933 
L 179.966097 162.348325 
L 180.33892 162.877475 
L 181.597195 164.05586 
L 181.643798 163.731388 
L 182.156429 164.399219 
L 182.203031 162.892378 
L 182.669059 161.993601 
L 182.85547 163.817194 
L 183.18169 164.931078 
L 183.50791 165.381234 
L 184.113746 165.388261 
L 184.486568 167.311671 
L 184.533171 169.034886 
L 184.999199 168.024505 
L 185.045802 168.844081 
L 185.092404 167.283214 
L 185.232213 168.614896 
L 186.490488 167.408391 
L 186.676899 165.483305 
L 187.003119 165.962386 
L 187.562352 163.469819 
L 188.261394 165.453894 
L 188.494408 165.203732 
L 188.680819 167.455215 
L 189.240053 168.472097 
L 189.286656 170.404157 
L 189.473067 168.740222 
L 189.752684 169.324762 
L 189.799286 169.234561 
L 189.939095 169.574669 
L 190.35852 169.047315 
L 190.451725 171.172709 
L 190.684739 169.473828 
L 190.917753 170.566138 
L 191.057562 170.605764 
L 191.290576 168.636045 
L 191.52359 168.751154 
L 191.849809 169.079407 
L 192.409043 169.957145 
L 193.108084 168.656345 
L 193.667318 168.587034 
L 194.133346 167.188738 
L 194.319757 167.243358 
L 194.599374 166.528278 
L 195.391621 162.742481 
L 195.438224 163.208442 
L 196.323677 162.824916 
L 196.37028 163.139569 
L 196.789705 162.192497 
L 196.88291 161.299819 
L 198.04798 161.395508 
L 198.187789 162.310504 
L 198.327597 162.39198 
L 198.793625 163.516969 
L 199.632475 164.650299 
L 199.772283 163.703833 
L 200.238311 166.010247 
L 200.331517 164.919589 
L 200.611134 164.155 
L 201.21697 163.036715 
L 201.682998 162.865542 
L 201.822806 163.533504 
L 201.962615 163.226797 
L 202.754862 160.221437 
L 204.05974 159.007869 
L 205.737441 158.636443 
L 205.784043 158.775218 
L 206.716099 156.831057 
L 206.762702 157.976039 
L 207.042319 157.761436 
L 207.415141 161.297725 
L 207.461744 161.118745 
L 207.508347 162.563011 
L 207.834566 160.920692 
L 208.626814 160.259708 
L 209.931692 161.46403 
L 210.584131 163.763422 
L 210.723939 162.796582 
L 210.817145 163.564017 
L 211.143364 163.425595 
L 211.376378 163.942259 
L 211.935612 164.777226 
L 211.982215 163.837415 
L 212.122023 164.111407 
L 212.215229 163.497791 
L 212.541448 163.421056 
L 213.100682 163.405486 
L 213.193887 163.767109 
L 214.219149 165.798999 
L 214.358957 165.089733 
L 215.757041 165.917742 
L 216.129863 164.489832 
L 217.714358 164.195421 
L 217.947372 165.517793 
L 218.460003 166.540167 
L 218.879428 165.984426 
L 219.205647 166.148093 
L 219.298853 164.535707 
L 219.438661 165.447951 
L 219.531867 164.89586 
L 219.811483 167.251779 
L 220.184306 166.399889 
L 220.696936 167.188103 
L 220.883348 167.772832 
L 221.535787 165.438919 
L 221.722198 165.589674 
L 222.09502 166.300268 
L 222.328034 165.921163 
L 223.027076 166.130664 
L 223.353296 168.106695 
L 223.679515 168.062857 
L 224.378557 168.951404 
L 224.42516 169.829967 
L 224.471763 167.805393 
L 225.310613 173.244617 
L 225.823243 174.835083 
L 226.382477 175.792677 
L 226.801902 175.989652 
L 227.221327 176.853876 
L 227.500944 176.123301 
L 227.873766 175.911401 
L 228.246589 176.98794 
L 228.386397 178.579053 
L 228.666014 180.018199 
L 228.712616 179.744768 
L 229.225247 178.212172 
L 229.27185 176.721199 
L 230.483523 178.360899 
L 230.576728 176.585755 
L 231.229167 176.457722 
L 232.347634 176.73985 
L 232.487443 178.030402 
L 232.673854 176.530838 
L 232.813662 176.479632 
L 233.139882 175.300717 
L 233.186484 174.278746 
L 234.025335 173.673879 
L 234.491363 173.132201 
L 235.050596 172.184627 
L 235.330213 174.177745 
L 235.982652 174.004989 
L 236.588488 172.842524 
L 236.774899 170.727887 
L 236.914708 171.793979 
L 236.96131 171.441658 
L 237.007913 171.002612 
L 237.427338 172.374655 
L 238.219586 172.066794 
L 238.359394 174.781773 
L 238.545805 174.211638 
L 238.685614 175.721346 
L 239.757478 176.633296 
L 240.223506 176.127419 
L 240.96915 175.700663 
L 241.388576 174.980078 
L 241.574987 173.072414 
L 241.947809 171.903814 
L 242.367234 172.319692 
L 242.507043 171.043142 
L 243.905126 171.72163 
L 244.184743 172.53589 
L 244.324551 170.947254 
L 244.790579 172.818727 
L 245.256607 170.773929 
L 245.349813 169.438286 
L 245.489621 170.034183 
L 246.281869 170.557593 
L 246.887705 169.093328 
L 247.30713 168.363079 
L 247.586747 169.031959 
L 248.099377 166.822535 
L 248.845022 167.222769 
L 249.031433 166.538171 
L 249.124639 168.96383 
L 249.544064 169.913845 
L 249.777078 169.394185 
L 250.336311 166.638723 
L 250.662531 167.292456 
L 252.386834 165.305245 
L 252.573245 168.152722 
L 252.759656 167.399124 
L 253.551904 167.57083 
L 253.831521 166.894201 
L 254.111137 165.717246 
L 254.250946 166.457403 
L 255.276207 165.370289 
L 255.602427 165.989302 
L 255.742235 165.451373 
L 256.254866 165.124434 
L 257.419936 168.009533 
L 258.118977 169.903791 
L 258.771416 169.192843 
L 259.051033 168.43955 
L 259.144239 169.397291 
L 259.470458 168.663631 
L 259.936486 169.8086 
L 260.076295 169.516444 
L 260.216103 170.570898 
L 260.262706 172.04463 
L 260.449117 171.447225 
L 260.915145 171.408394 
L 261.567584 172.605171 
L 262.359831 172.758018 
L 262.872462 173.739865 
L 263.291887 172.516252 
L 263.524901 170.712658 
L 263.757915 170.274047 
L 264.037532 170.633819 
L 264.456957 170.034801 
L 265.249204 169.152095 
L 265.994849 168.600945 
L 266.134657 170.857453 
L 266.880302 174.232889 
L 267.253124 175.004464 
L 267.439536 175.132342 
L 267.765755 173.636707 
L 268.138577 174.564853 
L 268.231783 173.68804 
L 268.744414 173.282087 
L 269.629867 169.713199 
L 269.816278 169.922866 
L 270.1891 170.64285 
L 271.260964 173.03271 
L 271.540581 172.692519 
L 271.726992 173.164326 
L 272.426034 173.688658 
L 272.705651 173.621241 
L 272.845459 173.738584 
L 272.938665 172.998794 
L 273.264884 172.794644 
L 273.404693 171.795823 
L 273.591104 171.699893 
L 273.777515 170.983571 
L 273.824118 173.08022 
L 274.756174 173.475252 
L 274.942585 171.623314 
L 275.222202 171.619802 
L 275.595024 172.128698 
L 276.061052 172.471394 
L 276.713491 171.461733 
L 276.853299 169.09193 
L 276.993108 170.274643 
L 278.717411 170.606808 
L 278.764014 170.365 
L 278.950425 170.130856 
L 279.136836 168.59335 
L 279.183439 167.027649 
L 279.323247 167.619102 
L 279.556261 165.711921 
L 280.068892 166.258307 
L 280.441714 168.292503 
L 280.628125 167.272092 
L 281.000948 169.433587 
L 281.37377 168.297653 
L 281.420373 169.344461 
L 281.699989 167.640279 
L 281.839798 167.509442 
L 282.492237 168.288507 
L 282.818456 167.431835 
L 283.843718 166.221669 
L 284.169937 166.752406 
L 284.449554 166.884408 
L 284.635965 166.67865 
L 284.682568 167.462122 
L 285.288404 168.152543 
L 285.940843 167.441507 
L 286.080652 167.681309 
L 286.22046 168.887498 
L 286.406871 172.075658 
L 287.152516 170.746767 
L 287.245722 171.362916 
L 287.38553 173.314075 
L 287.432133 172.604092 
L 287.758352 171.794536 
L 287.804955 171.841766 
L 288.643805 172.358614 
L 289.575861 172.31474 
L 290.787534 174.318786 
L 290.880739 174.339007 
L 291.766192 172.382793 
L 291.952603 172.523551 
L 292.278823 173.263933 
L 292.465234 172.387418 
L 292.698248 172.274 
L 294.142935 172.608265 
L 294.655565 174.335375 
L 296.146855 174.714856 
L 297.265322 174.470727 
L 297.824555 174.765515 
L 298.150775 176.941814 
L 298.616802 176.340175 
L 298.756611 174.9552 
L 298.803214 175.36603 
L 299.269242 171.568126 
L 299.502255 174.054272 
L 301.226559 174.614233 
L 301.41297 176.234239 
L 301.599381 173.656624 
L 301.925601 173.155752 
L 302.158615 171.505497 
L 302.298423 172.832972 
L 302.857656 172.787251 
L 303.277082 172.924408 
L 303.789712 174.021171 
L 304.302343 173.604023 
L 304.721768 175.968717 
L 304.954782 175.334136 
L 305.234399 174.935907 
L 305.560618 175.110054 
L 306.865496 174.491474 
L 306.912099 174.221212 
L 307.09851 177.670411 
L 307.284922 178.630268 
L 307.42473 177.671946 
L 308.403388 178.92649 
L 308.729608 178.264771 
L 308.916019 180.079037 
L 309.894678 179.474412 
L 309.941281 176.950421 
L 310.081089 177.632805 
L 310.174295 180.007152 
L 310.407308 178.182974 
L 310.640322 177.766296 
L 310.826734 176.047423 
L 311.945201 175.55545 
L 312.224817 175.682219 
L 312.318023 174.213053 
L 312.877256 173.974498 
L 313.389887 174.546258 
L 313.809312 173.474968 
L 313.855915 175.346034 
L 314.042326 174.517998 
L 314.508354 175.130247 
L 314.834574 174.66046 
L 315.020985 175.939662 
L 315.347204 175.602359 
L 315.813232 174.781306 
L 315.906438 173.600015 
L 316.139452 174.632755 
L 316.232657 174.491667 
L 316.372466 173.726102 
L 316.465671 174.290324 
L 316.978302 175.531597 
L 318.189975 174.501344 
L 318.562797 175.27558 
L 318.702605 173.990578 
L 318.842414 176.266492 
L 319.168633 176.932096 
L 319.355044 176.847076 
L 319.44825 175.996583 
L 319.588058 177.466872 
L 320.473511 178.336906 
L 320.799731 178.096966 
L 321.032745 177.069975 
L 321.498773 176.939738 
L 322.058006 178.498948 
L 323.223076 179.83715 
L 325.040585 180.561916 
L 325.506613 180.52082 
L 326.159052 179.953612 
L 326.392066 180.092523 
L 327.091108 179.538566 
L 327.976561 179.258657 
L 328.30278 179.541559 
L 328.442588 178.924968 
L 328.768808 181.050412 
L 329.561055 178.461036 
L 330.027083 177.774044 
L 330.120289 178.924576 
L 330.260097 179.120372 
L 330.3067 178.393179 
L 330.353303 179.204712 
L 330.399906 180.310146 
L 330.726125 179.499611 
L 331.052345 177.676382 
L 331.47177 177.77801 
L 331.844592 177.679614 
L 332.776648 177.03491 
L 333.848512 177.729118 
L 334.64076 178.615324 
L 335.433007 180.822916 
L 335.572815 182.46096 
L 336.085446 181.71932 
L 336.178652 182.732923 
L 336.784488 183.710866 
L 337.996161 183.645349 
L 339.254436 184.687066 
L 339.48745 185.276982 
L 340.000081 184.642711 
L 340.279697 182.91591 
L 340.792328 182.134317 
L 341.211753 180.235962 
L 341.537973 180.504281 
L 341.817589 179.871402 
L 342.097206 181.250432 
L 342.143809 180.731382 
L 343.541893 180.887337 
L 343.774907 179.325873 
L 344.147729 178.597929 
L 345.312799 176.987361 
L 345.359401 175.0702 
L 346.011841 177.947904 
L 346.66428 179.49968 
L 346.850691 179.62069 
L 346.943896 178.370862 
L 347.50313 178.632197 
L 347.875952 180.117551 
L 348.108966 179.84534 
L 348.295377 181.161132 
L 349.50705 181.974385 
L 350.858531 180.381392 
L 351.231353 179.211533 
L 351.51097 176.976638 
L 352.34982 177.284128 
L 352.536231 176.111142 
L 352.769245 177.729253 
L 353.002259 177.491128 
L 353.375081 178.692435 
L 354.213932 179.55734 
L 354.773165 179.178702 
L 355.099385 179.408508 
L 355.51881 180.280958 
L 355.658618 179.041952 
L 356.311057 179.796681 
L 356.963496 179.324506 
L 357.149908 180.819763 
L 357.19651 182.951095 
L 357.243113 182.284686 
L 357.848949 182.164204 
L 358.128566 180.97308 
L 358.36158 180.720078 
L 358.641197 183.32292 
L 358.874211 184.551068 
L 359.386841 183.049171 
L 360.598514 182.617542 
L 361.437364 183.573673 
L 362.136406 184.614829 
L 362.276214 185.348586 
L 362.322817 185.02263 
L 362.602434 184.631288 
L 363.068462 184.530273 
L 363.720901 183.987037 
L 364.37334 182.827843 
L 364.559751 183.243977 
L 364.69956 180.959683 
L 364.746162 182.330095 
L 366.004438 180.941644 
L 366.284054 180.306682 
L 366.423863 180.457762 
L 366.843288 180.733126 
L 367.122905 180.422787 
L 367.402521 180.780168 
L 367.449124 180.060451 
L 367.54233 180.610128 
L 368.194769 178.913079 
L 368.940414 177.551386 
L 369.173428 181.017226 
L 369.406441 180.692787 
L 369.592853 181.452537 
L 370.338497 180.807063 
L 370.3851 180.550604 
L 370.571511 181.444769 
L 370.990936 181.174211 
L 371.922992 182.753889 
L 372.482226 182.753426 
L 372.901651 183.278423 
L 373.041459 182.142697 
L 374.159926 182.178229 
L 374.672557 181.38764 
L 374.998776 181.672269 
L 375.138585 181.293334 
L 375.23179 182.96655 
L 375.324996 181.74616 
L 375.418201 182.420703 
L 375.884229 182.464027 
L 376.629874 183.085781 
L 377.142505 184.033758 
L 377.23571 183.086456 
L 377.841547 182.837368 
L 377.981355 183.771956 
L 378.260972 183.627891 
L 379.053219 182.976104 
L 379.23963 185.758214 
L 379.519247 183.884008 
L 379.938672 184.130227 
L 379.985275 183.874965 
L 380.4047 182.927654 
L 380.544508 183.036131 
L 380.684317 181.734057 
L 380.917331 181.140512 
L 381.010536 179.862016 
L 381.290153 179.897527 
L 381.709578 178.777826 
L 382.222209 177.912558 
L 382.455223 176.275878 
L 383.24747 179.252082 
L 384.272732 178.067189 
L 384.365937 179.340684 
L 384.505746 176.605619 
L 385.018376 177.694554 
L 385.344596 178.067276 
L 385.670815 177.292558 
L 387.068899 178.197 
L 387.115502 180.30151 
L 387.395119 179.288272 
L 387.861147 178.299228 
L 388.094161 177.331379 
L 388.187366 177.762091 
L 388.327174 177.013195 
L 388.839805 178.047465 
L 389.119422 177.865071 
L 389.58545 177.108972 
L 389.632053 177.445759 
L 389.725258 177.422139 
L 390.331094 176.611911 
L 390.657314 177.318366 
L 390.75052 178.281916 
L 390.797122 178.240004 
L 392.008795 176.794583 
L 392.335014 177.508264 
L 393.406879 178.48567 
L 393.733098 177.951639 
L 394.152523 180.172316 
L 395.923429 180.369223 
L 396.529266 180.322659 
L 396.575868 178.735483 
L 396.669074 179.649093 
L 396.948691 180.380585 
L 397.088499 181.761318 
L 397.927349 182.036656 
L 398.300172 182.332732 
L 398.7662 182.04418 
L 399.884667 181.956733 
L 400.071078 182.286001 
L 400.4439 184.178466 
L 400.630311 183.276046 
L 401.096339 182.835684 
L 401.935189 180.692977 
L 402.354614 181.544934 
L 402.634231 180.311008 
L 403.61289 180.336928 
L 404.032315 181.777778 
L 404.12552 180.654263 
L 404.731357 179.657183 
L 404.824562 179.151565 
L 404.964371 180.603177 
L 405.197385 179.476928 
L 405.383796 181.577758 
L 405.710015 181.576353 
L 405.849824 180.699692 
L 406.222646 181.152188 
L 406.595468 180.050309 
L 407.713935 180.629192 
L 408.040155 181.407673 
L 408.599388 180.68183 
L 408.739197 181.872483 
L 408.879005 181.996756 
L 409.717855 183.338775 
L 409.904267 181.616341 
L 410.183883 183.776812 
L 410.743117 185.255571 
L 411.535364 184.88773 
L 411.535364 184.88773 
" clip-path="url(#pee47741018)" style="fill: none; stroke: #1f77b4; stroke-width: 1.8; stroke-linecap: square"/>
   </g>
   <g id="legend_1">
    <g id="patch_7">
     <path d="M 317.475698 36.620865 
L 422.69976 36.620865 
Q 424.49976 36.620865 424.49976 34.820865 
L 424.49976 9.30024 
Q 424.49976 7.50024 422.69976 7.50024 
L 317.475698 7.50024 
Q 315.675698 7.50024 315.675698 9.30024 
L 315.675698 34.820865 
Q 315.675698 36.620865 317.475698 36.620865 
z
" style="fill: #ffffff; opacity: 0.8; stroke: #cccccc; stroke-linejoin: miter"/>
    </g>
    <g id="line2d_28">
     <path d="M 319.275698 14.788834 
L 328.275698 14.788834 
L 337.275698 14.788834 
" style="fill: none; stroke: #1f77b4; stroke-width: 1.8; stroke-linecap: square"/>
    </g>
    <g id="text_15">
     <!-- Train (smoothed) -->
     <g transform="translate(344.475698 17.938834) scale(0.09 -0.09)">
      <defs>
       <path id="DejaVuSans-54" d="M -19 4666 
L 3928 4666 
L 3928 4134 
L 2272 4134 
L 2272 0 
L 1638 0 
L 1638 4134 
L -19 4134 
L -19 4666 
z
" transform="scale(0.015625)"/>
       <path id="DejaVuSans-72" d="M 2631 2963 
Q 2534 3019 2420 3045 
Q 2306 3072 2169 3072 
Q 1681 3072 1420 2755 
Q 1159 2438 1159 1844 
L 1159 0 
L 581 0 
L 581 3500 
L 1159 3500 
L 1159 2956 
Q 1341 3275 1631 3429 
Q 1922 3584 2338 3584 
Q 2397 3584 2469 3576 
Q 2541 3569 2628 3553 
L 2631 2963 
z
" transform="scale(0.015625)"/>
       <path id="DejaVuSans-61" d="M 2194 1759 
Q 1497 1759 1228 1600 
Q 959 1441 959 1056 
Q 959 750 1161 570 
Q 1363 391 1709 391 
Q 2188 391 2477 730 
Q 2766 1069 2766 1631 
L 2766 1759 
L 2194 1759 
z
M 3341 1997 
L 3341 0 
L 2766 0 
L 2766 531 
Q 2569 213 2275 61 
Q 1981 -91 1556 -91 
Q 1019 -91 701 211 
Q 384 513 384 1019 
Q 384 1609 779 1909 
Q 1175 2209 1959 2209 
L 2766 2209 
L 2766 2266 
Q 2766 2663 2505 2880 
Q 2244 3097 1772 3097 
Q 1472 3097 1187 3025 
Q 903 2953 641 2809 
L 641 3341 
Q 956 3463 1253 3523 
Q 1550 3584 1831 3584 
Q 2591 3584 2966 3190 
Q 3341 2797 3341 1997 
z
" transform="scale(0.015625)"/>
       <path id="DejaVuSans-69" d="M 603 3500 
L 1178 3500 
L 1178 0 
L 603 0 
L 603 3500 
z
M 603 4863 
L 1178 4863 
L 1178 4134 
L 603 4134 
L 603 4863 
z
" transform="scale(0.015625)"/>
       <path id="DejaVuSans-6e" d="M 3513 2113 
L 3513 0 
L 2938 0 
L 2938 2094 
Q 2938 2591 2744 2837 
Q 2550 3084 2163 3084 
Q 1697 3084 1428 2787 
Q 1159 2491 1159 1978 
L 1159 0 
L 581 0 
L 581 3500 
L 1159 3500 
L 1159 2956 
Q 1366 3272 1645 3428 
Q 1925 3584 2291 3584 
Q 2894 3584 3203 3211 
Q 3513 2838 3513 2113 
z
" transform="scale(0.015625)"/>
       <path id="DejaVuSans-20" transform="scale(0.015625)"/>
       <path id="DejaVuSans-28" d="M 1984 4856 
Q 1566 4138 1362 3434 
Q 1159 2731 1159 2009 
Q 1159 1288 1364 580 
Q 1569 -128 1984 -844 
L 1484 -844 
Q 1016 -109 783 600 
Q 550 1309 550 2009 
Q 550 2706 781 3412 
Q 1013 4119 1484 4856 
L 1984 4856 
z
" transform="scale(0.015625)"/>
       <path id="DejaVuSans-6d" d="M 3328 2828 
Q 3544 3216 3844 3400 
Q 4144 3584 4550 3584 
Q 5097 3584 5394 3201 
Q 5691 2819 5691 2113 
L 5691 0 
L 5113 0 
L 5113 2094 
Q 5113 2597 4934 2840 
Q 4756 3084 4391 3084 
Q 3944 3084 3684 2787 
Q 3425 2491 3425 1978 
L 3425 0 
L 2847 0 
L 2847 2094 
Q 2847 2600 2669 2842 
Q 2491 3084 2119 3084 
Q 1678 3084 1418 2786 
Q 1159 2488 1159 1978 
L 1159 0 
L 581 0 
L 581 3500 
L 1159 3500 
L 1159 2956 
Q 1356 3278 1631 3431 
Q 1906 3584 2284 3584 
Q 2666 3584 2933 3390 
Q 3200 3197 3328 2828 
z
" transform="scale(0.015625)"/>
       <path id="DejaVuSans-74" d="M 1172 4494 
L 1172 3500 
L 2356 3500 
L 2356 3053 
L 1172 3053 
L 1172 1153 
Q 1172 725 1289 603 
Q 1406 481 1766 481 
L 2356 481 
L 2356 0 
L 1766 0 
Q 1100 0 847 248 
Q 594 497 594 1153 
L 594 3053 
L 172 3053 
L 172 3500 
L 594 3500 
L 594 4494 
L 1172 4494 
z
" transform="scale(0.015625)"/>
       <path id="DejaVuSans-65" d="M 3597 1894 
L 3597 1613 
L 953 1613 
Q 991 1019 1311 708 
Q 1631 397 2203 397 
Q 2534 397 2845 478 
Q 3156 559 3463 722 
L 3463 178 
Q 3153 47 2828 -22 
Q 2503 -91 2169 -91 
Q 1331 -91 842 396 
Q 353 884 353 1716 
Q 353 2575 817 3079 
Q 1281 3584 2069 3584 
Q 2775 3584 3186 3129 
Q 3597 2675 3597 1894 
z
M 3022 2063 
Q 3016 2534 2758 2815 
Q 2500 3097 2075 3097 
Q 1594 3097 1305 2825 
Q 1016 2553 972 2059 
L 3022 2063 
z
" transform="scale(0.015625)"/>
       <path id="DejaVuSans-64" d="M 2906 2969 
L 2906 4863 
L 3481 4863 
L 3481 0 
L 2906 0 
L 2906 525 
Q 2725 213 2448 61 
Q 2172 -91 1784 -91 
Q 1150 -91 751 415 
Q 353 922 353 1747 
Q 353 2572 751 3078 
Q 1150 3584 1784 3584 
Q 2172 3584 2448 3432 
Q 2725 3281 2906 2969 
z
M 947 1747 
Q 947 1113 1208 752 
Q 1469 391 1925 391 
Q 2381 391 2643 752 
Q 2906 1113 2906 1747 
Q 2906 2381 2643 2742 
Q 2381 3103 1925 3103 
Q 1469 3103 1208 2742 
Q 947 2381 947 1747 
z
" transform="scale(0.015625)"/>
       <path id="DejaVuSans-29" d="M 513 4856 
L 1013 4856 
Q 1481 4119 1714 3412 
Q 1947 2706 1947 2009 
Q 1947 1309 1714 600 
Q 1481 -109 1013 -844 
L 513 -844 
Q 928 -128 1133 580 
Q 1338 1288 1338 2009 
Q 1338 2731 1133 3434 
Q 928 4138 513 4856 
z
" transform="scale(0.015625)"/>
      </defs>
      <use xlink:href="#DejaVuSans-54"/>
      <use xlink:href="#DejaVuSans-72" transform="translate(46.333984 0)"/>
      <use xlink:href="#DejaVuSans-61" transform="translate(87.447266 0)"/>
      <use xlink:href="#DejaVuSans-69" transform="translate(148.726562 0)"/>
      <use xlink:href="#DejaVuSans-6e" transform="translate(176.509766 0)"/>
      <use xlink:href="#DejaVuSans-20" transform="translate(239.888672 0)"/>
      <use xlink:href="#DejaVuSans-28" transform="translate(271.675781 0)"/>
      <use xlink:href="#DejaVuSans-73" transform="translate(310.689453 0)"/>
      <use xlink:href="#DejaVuSans-6d" transform="translate(362.789062 0)"/>
      <use xlink:href="#DejaVuSans-6f" transform="translate(460.201172 0)"/>
      <use xlink:href="#DejaVuSans-6f" transform="translate(521.382812 0)"/>
      <use xlink:href="#DejaVuSans-74" transform="translate(582.564453 0)"/>
      <use xlink:href="#DejaVuSans-68" transform="translate(621.773438 0)"/>
      <use xlink:href="#DejaVuSans-65" transform="translate(685.152344 0)"/>
      <use xlink:href="#DejaVuSans-64" transform="translate(746.675781 0)"/>
      <use xlink:href="#DejaVuSans-29" transform="translate(810.152344 0)"/>
     </g>
    </g>
    <g id="line2d_29">
     <path d="M 319.275698 27.999146 
L 328.275698 27.999146 
L 337.275698 27.999146 
" style="fill: none; stroke-dasharray: 6.66,2.88; stroke-dashoffset: 0; stroke: #d62728; stroke-width: 1.8"/>
    </g>
    <g id="text_16">
     <!-- Validation -->
     <g transform="translate(344.475698 31.149146) scale(0.09 -0.09)">
      <defs>
       <path id="DejaVuSans-56" d="M 1831 0 
L 50 4666 
L 709 4666 
L 2188 738 
L 3669 4666 
L 4325 4666 
L 2547 0 
L 1831 0 
z
" transform="scale(0.015625)"/>
       <path id="DejaVuSans-6c" d="M 603 4863 
L 1178 4863 
L 1178 0 
L 603 0 
L 603 4863 
z
" transform="scale(0.015625)"/>
      </defs>
      <use xlink:href="#DejaVuSans-56"/>
      <use xlink:href="#DejaVuSans-61" transform="translate(60.658203 0)"/>
      <use xlink:href="#DejaVuSans-6c" transform="translate(121.9375 0)"/>
      <use xlink:href="#DejaVuSans-69" transform="translate(149.720703 0)"/>
      <use xlink:href="#DejaVuSans-64" transform="translate(177.503906 0)"/>
      <use xlink:href="#DejaVuSans-61" transform="translate(240.980469 0)"/>
      <use xlink:href="#DejaVuSans-74" transform="translate(302.259766 0)"/>
      <use xlink:href="#DejaVuSans-69" transform="translate(341.46875 0)"/>
      <use xlink:href="#DejaVuSans-6f" transform="translate(369.251953 0)"/>
      <use xlink:href="#DejaVuSans-6e" transform="translate(430.433594 0)"/>
     </g>
    </g>
   </g>
  </g>
 </g>
 <defs>
  <clipPath id="pee47741018">
   <rect x="44.783053" y="3.00024" width="384.216708" height="251.64327"/>
  </clipPath>
 </defs>
</svg>
